PathFileType	3	(X/Y/Z)	D:\Vicon Database\Healthy Subjects\S0040\Jan. 30, 2020\Force Plate Walk 4.trc
DataRate	CameraRate	NumFrames	NumMarkers	Units	OrigDataRate	OrigDataStartFrame	OrigNumFrames
100.0	100.0	4	53	mm	100.0	446	329	
Frame#	Time	right_foot_cluster2			right_foot_cluster3			sternum_cluster1			sternum_cluster2			sternum_cluster3			left_asis			right_asis			left_psis			right_psis			sacrum_cluster1			sacrum_cluster2			sacrum_cluster3			left_lat_femoral_epicondyle			left_anterior_thigh15			left_anterior_thigh25			left_anterior_thigh50			left_lateral_thigh25			left_lateral_thigh50			left_thigh_cluster1			left_thigh_cluster2			left_thigh_cluster3			left_fibular_head			left_tibial_tuberosity			left_anterior_shank30			left_lateral_malleolus			left_shank_cluster1			left_shank_cluster2			left_shank_cluster3			left_heel			left_metatarsal2			left_foot_cluster1			left_foot_cluster2			left_foot_cluster3			right_lat_femoral_epicondyle			right_anterior_thigh15			right_anterior_thigh25			right_anterior_thigh50			right_lateral_thigh25			right_lateral_thigh50			right_thigh_cluster1			right_thigh_cluster2			right_thigh_cluster3			right_fibular_head			right_tibial_tuberosity			right_lateral_distal_shank			right_anterior_shank30			right_lateral_malleolus			right_shank_cluster1			right_shank_cluster2			right_shank_cluster3			right_heel			right_metatarsal2			right_foot_cluster1			
		X1	Y1	Z1	X2	Y2	Z2	X3	Y3	Z3	X4	Y4	Z4	X5	Y5	Z5	X6	Y6	Z6	X7	Y7	Z7	X8	Y8	Z8	X9	Y9	Z9	X10	Y10	Z10	X11	Y11	Z11	X12	Y12	Z12	X13	Y13	Z13	X14	Y14	Z14	X15	Y15	Z15	X16	Y16	Z16	X17	Y17	Z17	X18	Y18	Z18	X19	Y19	Z19	X20	Y20	Z20	X21	Y21	Z21	X22	Y22	Z22	X23	Y23	Z23	X24	Y24	Z24	X25	Y25	Z25	X26	Y26	Z26	X27	Y27	Z27	X28	Y28	Z28	X29	Y29	Z29	X30	Y30	Z30	X31	Y31	Z31	X32	Y32	Z32	X33	Y33	Z33	X34	Y34	Z34	X35	Y35	Z35	X36	Y36	Z36	X37	Y37	Z37	X38	Y38	Z38	X39	Y39	Z39	X40	Y40	Z40	X41	Y41	Z41	X42	Y42	Z42	X43	Y43	Z43	X44	Y44	Z44	X45	Y45	Z45	X46	Y46	Z46	X47	Y47	Z47	X48	Y48	Z48	X49	Y49	Z49	X50	Y50	Z50	X51	Y51	Z51	X52	Y52	Z52	X53	Y53	Z53	
446	4.45	1495.0355	126.21769	-157.00381	1497.0649	127.90984	-194.48753	1480.6493	1455.1034	-92.106224	1467.8943	1427.5918	-84.560181	1472.6904	1430.0618	-122.37306	1476.6014	1079.1096	28.021753	1498.7637	1083.01	-219.73546	1647.2744	1089.9606	-7.6527476	1659.5466	1088.8907	-124.8952	1664.5513	1146.5293	-72.892982	1670.9259	1120.5382	-83.661278	1669.245	1115.8618	-44.623775	1525.4752	545.5752	41.687611	1437.3031	628.3515	-15.314685	1419.6331	713.57172	3.2117643	1422.6067	852.22339	28.929815	1526.9982	698.23309	68.515106	1518.866	844.85083	99.734375	1523.0999	798.4129	104.26465	1525.5054	768.86542	100.1441	1488.0647	779.51953	100.1506	1527.025	464.01767	45.518135	1477.5513	453.06439	-14.488036	1534.5507	206.04956	-29.596052	1602.6984	99.906876	-0.45408002	1487.4994	398.5834	-43.732052	1486.3809	370.44852	-36.171345	1503.9257	373.9985	-70.236977	1678.5914	65.297356	-34.971886	1459.3845	68.374168	-37.303123	1520.2617	116.58955	-32.415104	1496.0853	101.37136	-21.477449	1492.3743	105.59499	-59.756107	1398.2771	555.26575	-246.48926	1328.8386	658.95508	-202.39101	1344.533	743.90411	-197.14429	1400.8048	863.37476	-193.15274	1448.0248	703.68329	-263.07141	1507.7689	841.26593	-278.8288	1494.5508	790.7738	-286.90179	1474.201	769.68976	-286.77087	1509.6115	755.29919	-276.16422	1420.2957	495.4873	-247.74983	1366.7909	468.56866	-206.77109	1555.0004	266.63165	-215.05122	1503.3186	257.38892	-173.57928	1601.8053	171.17281	-195.67805	1403.2509	412.79642	-146.04053	1421.397	391.36057	-137.33623	1404.1405	378.80737	-167.93402	1681.6041	173.04871	-150.62318	1481.9709	84.02536	-166.21465	1511.2975	149.0755	-165.46288
447	4.46	1451.3938	124.50107	-159.32289	1454.4919	125.51299	-196.62477	1467.1121	1455.8682	-92.331406	1454.4263	1428.3212	-84.773582	1459.1841	1430.7683	-122.57825	1463.9442	1079.2327	28.058565	1486.0044	1084.5088	-219.46843	1634.2198	1091.0581	-8.1109953	1646.915	1090.347	-125.06789	1651.8109	1147.777	-72.785851	1658.0769	1121.667	-83.764404	1656.4247	1116.7816	-44.683529	1522.8551	546.01031	41.520123	1432.5519	626.91742	-14.885967	1412.8613	711.80389	3.6921735	1412.8458	850.72662	29.493229	1521.3322	698.76044	68.012306	1509.943	845.03033	99.410645	1515.3793	798.79657	103.69475	1518.3138	769.49213	99.516273	1480.9181	779.24792	100.23139	1525.3691	464.38351	45.391388	1475.7322	452.9332	-14.384894	1534.1161	206.27885	-29.493998	1602.4891	100.25294	-0.71829343	1485.837	398.5293	-43.633072	1484.6288	370.44824	-36.104748	1502.4114	374.04639	-70.18325	1678.5813	65.761154	-35.025444	1459.2191	68.184021	-37.404758	1520.3777	116.52016	-32.906975	1495.7513	101.48746	-21.535637	1492.1768	105.51627	-59.882179	1380.4312	558.68469	-245.93628	1311.8049	663.84821	-202.33714	1328.6158	748.72296	-197.00795	1386.8727	866.89337	-192.89893	1431.2778	707.12408	-263.6326	1492.902	843.73889	-279.88452	1478.431	793.43329	-288.38446	1458.373	772.43109	-287.70105	1493.8434	757.57458	-277.64304	1401.022	497.90988	-247.00328	1345.3416	473.05899	-207.34499	1521.3772	260.30197	-215.54219	1468.8584	253.76585	-175.12317	1562.2814	161.70317	-196.383	1377.1074	414.4985	-147.16713	1393.8354	391.66541	-138.66016	1376.4805	380.60333	-169.77051	1640.8428	157.68665	-150.89835	1436.2145	82.779053	-168.64619	1469.4919	145.7683	-167.22896
448	4.47	1408.2216	122.64751	-161.79739	1411.6648	123.72398	-199.05231	1453.4026	1456.4028	-92.515495	1440.9924	1428.7189	-85.041061	1445.9119	1431.2003	-122.88476	1451.2312	1079.0815	28.077602	1473.2148	1085.7407	-219.26421	1621.4457	1091.7164	-8.441515	1634.134	1091.4208	-125.45293	1638.7787	1148.1198	-73.015884	1645.4036	1122.6556	-83.90844	1643.6088	1117.7	-44.902664	1520.5493	546.4494	41.465523	1427.0692	625.58423	-14.283557	1406.0997	709.91718	4.1324463	1402.6743	849.27057	30.140005	1515.5649	699.19202	67.689659	1500.9932	844.98431	99.078064	1507.2408	799.24554	103.51797	1510.9083	770.04871	98.904724	1473.2595	778.81702	100.06742	1523.5162	464.6676	45.240467	1473.8275	452.85928	-14.355805	1533.83	206.32793	-29.561052	1602.2131	100.64945	-1.0293602	1484.0254	398.65582	-43.484901	1482.9963	370.41199	-35.961094	1500.4357	374.29688	-70.203308	1678.415	66.10482	-35.182682	1458.9954	67.99675	-37.496628	1519.999	116.6163	-33.068264	1495.379	101.54992	-21.653044	1491.9507	105.42876	-60.023323	1363.5396	561.50781	-245.24376	1295.348	668.13519	-202.08136	1313.2384	752.82947	-196.5565	1372.8702	869.94073	-192.58502	1414.6893	710.00568	-263.9725	1478.0289	846.00128	-281.27499	1462.6669	795.67084	-289.73672	1442.3311	774.89398	-288.02646	1477.2411	759.48987	-279.13837	1382.4292	499.642	-246.1813	1324.7827	477.2457	-207.79201	1488.2886	254.14705	-215.79155	1434.0204	250.55957	-176.97169	1521.6998	152.74901	-197.56664	1350.6307	416.30246	-148.60742	1366.4075	391.92523	-139.967	1348.6852	382.655	-171.6458	1599.1752	142.92528	-151.56764	1389.9961	82.502319	-171.47606	1427.7133	142.85579	-169.45627
449	4.48	1365.1327	121.65618	-164.66475	1368.7395	122.79301	-201.78122	1439.796	1456.4849	-92.716331	1427.4316	1428.8162	-85.279449	1432.6407	1431.1406	-123.0088	1438.573	1078.5779	28.040585	1459.9921	1086.7339	-219.02744	1609.0452	1092.2465	-8.784338	1621.2742	1092.0413	-126.00632	1625.5416	1148.3898	-73.455971	1632.9277	1123.3434	-84.170441	1630.9287	1118.2717	-45.249313	1517.7858	546.8642	41.027256	1422.9799	623.77753	-13.9175	1399.3385	707.84961	4.5245843	1393.47	847.18823	30.149784	1509.6345	699.47198	67.392647	1491.8507	844.86084	98.69577	1499.6552	798.89825	103.19103	1503.1157	770.23163	98.435043	1465.9003	778.12775	100.36036	1521.7114	465.03717	45.152985	1471.7389	452.60425	-14.127529	1532.5117	206.68956	-29.668554	1601.9362	101.04328	-1.3363489	1482.3668	398.54779	-43.178696	1481.3691	370.46207	-35.737289	1498.7806	374.11502	-70.044281	1678.2944	66.455856	-35.386127	1458.6832	67.845795	-37.652744	1519.6196	116.73385	-33.151524	1495.3094	101.30577	-21.94245	1491.9055	105.2517	-60.185341	1347.4445	563.7616	-244.48866	1279.5938	671.59442	-201.56776	1298.3951	756.01434	-195.86847	1359.1138	872.24426	-192.17464	1398.5311	712.28705	-264.24493	1463.1198	847.92926	-282.50189	1447.248	797.25903	-290.62134	1426.6245	776.84003	-288.8027	1460.6641	760.92401	-279.81424	1364.5242	500.67996	-245.26375	1305.0242	480.95767	-208.12802	1453.9764	248.10875	-216.53819	1399.3152	247.65472	-178.99948	1480.5082	144.32425	-198.89705	1325.3735	418.00815	-149.85185	1339.5439	392.34229	-141.26793	1322.2076	384.73132	-173.4754	1556.9971	129.15929	-152.31688	1344.0298	83.040787	-174.68428	1385.5828	140.80406	-171.87505
